<svg width="55" height="62" viewBox="0 0 55 62" fill="none" xmlns="http://www.w3.org/2000/svg">
<path d="M20.4916 2.27805C23.8858 2.01577 27.0442 2.2832 29.9654 3.08079C32.8832 3.83599 35.4289 5.0257 37.6029 6.64846C39.7769 8.27127 41.5332 10.2887 42.872 12.7009C44.2107 15.1131 44.9983 17.8451 45.2341 20.8968C45.555 25.0505 45.0977 29.0729 43.8618 32.9632C42.626 36.8532 40.8043 40.3408 38.3968 43.4261C36.0315 46.5083 33.1955 49.0307 29.89 50.9917C29.5268 51.212 29.1595 51.4197 28.7905 51.6193C28.6971 51.035 28.6242 50.404 28.5718 49.7262C28.4389 48.0072 28.4332 46.1852 28.5539 44.2602C30.4933 42.7364 32.2082 40.9607 33.6956 38.9293C35.8227 36.0786 37.4078 32.8431 38.4512 29.2234C39.5336 25.5583 39.9247 21.7761 39.6234 17.8767C39.286 13.5112 37.6663 10.2248 34.7645 8.01868C31.8625 5.81254 28.0988 4.88819 23.4743 5.24555C21.3531 5.40947 19.3608 5.86179 17.4976 6.60264C19.4166 7.13652 21.0207 7.73739 22.3099 8.40519C23.5956 9.03049 24.4882 9.53733 24.9877 9.92508C24.6844 10.4175 24.2398 11.2838 23.6527 12.523C23.108 13.7589 22.4556 15.2589 21.6957 17.0231C20.9782 18.784 20.2097 20.7194 19.3911 22.8292C18.5693 24.8966 17.7737 27.0264 17.0041 29.2177C15.0018 34.7874 13.5687 39.1624 12.7047 42.3418C11.8832 45.5177 11.5183 47.6992 11.6099 48.8861C12.2202 49.0521 12.9528 49.1446 13.8078 49.1638C14.6629 49.183 15.5788 49.1553 16.5546 49.0799C18.2198 48.9512 19.8252 48.6393 21.3722 48.1493C21.3888 48.5584 21.4103 48.9588 21.4405 49.3497C21.5769 51.1142 21.8846 52.6608 22.3594 53.991C21.3487 54.2036 20.3203 54.3533 19.2731 54.4342C15.7942 54.703 12.7489 54.2346 10.1377 53.0294C7.57217 51.8632 5.57048 49.9928 4.13377 47.4177C4.66208 45.9698 5.28649 44.1087 6.00713 41.8358C6.72773 39.563 7.47788 37.1175 8.25713 34.4991C9.03313 31.8382 9.82712 29.1331 10.639 26.3842C11.4476 23.5929 12.2048 20.9548 12.909 18.47C13.6133 15.9851 14.2099 13.7639 14.6989 11.8074C15.2302 9.8479 15.6049 8.34807 15.8233 7.30796C13.2357 8.61647 11.0739 10.4674 9.33834 12.8612C7.60274 15.2552 6.37767 18.1856 5.66389 21.6519C4.66201 21.3882 3.72516 20.8639 2.85365 20.0786C1.97876 19.2508 1.36327 18.1893 1.00718 16.895C1.28078 14.9126 1.9278 13.0716 2.94879 11.3725C4.01227 9.67007 5.39145 8.17812 7.08493 6.89601C8.7784 5.61393 10.7689 4.58523 13.0564 3.81152C15.3406 2.99553 17.8191 2.48461 20.4916 2.27805Z" fill="black"/>
<path d="M35.7108 19.4646C34.4114 21.6461 33.2609 24.0278 32.2593 26.6096C31.2577 29.1913 30.4274 31.8304 29.7683 34.5268C29.1396 37.1856 28.6921 39.8127 28.4256 42.4082C28.1895 44.9661 28.1568 47.3496 28.3275 49.5586C28.5389 52.2935 29.0734 54.2452 29.931 55.4134C30.7886 56.5817 32.1461 57.0941 34.0034 56.9506C36.1591 56.784 37.9886 55.849 39.4918 54.1455C40.9923 52.407 42.3472 50.0801 43.5565 47.1648C44.3443 45.2698 44.9858 43.2096 45.4811 40.9844C45.9764 38.7592 46.335 36.4917 46.5569 34.1818C46.8092 31.8343 46.9454 29.4958 46.9656 27.1662C46.9831 24.8016 46.9091 22.5498 46.7439 20.4109C46.6382 19.0435 46.5444 18.0454 46.4624 17.4169C46.3805 16.7883 46.2915 16.2837 46.1953 15.9031C46.2948 15.8954 46.5463 15.9113 46.9497 15.9506C47.3531 15.99 47.8076 16.0431 48.3132 16.1098C48.852 16.174 49.3769 16.2745 49.8879 16.4114C50.4321 16.5457 50.8948 16.704 51.2758 16.8862C51.3159 19.5638 51.2136 22.3406 50.9687 25.2167C50.757 28.0901 50.3934 30.9401 49.8778 33.7665C49.3622 36.5929 48.7225 39.323 47.9584 41.957C47.1944 44.591 46.294 46.9709 45.2572 49.0969C43.7325 52.2482 41.9407 54.7499 39.8818 56.6021C37.8257 58.4894 35.3051 59.5483 32.3202 59.779C29.269 60.0148 26.8245 59.2513 24.9867 57.4886C23.1517 55.7609 22.0865 52.9862 21.7911 49.1642C21.6204 46.9552 21.6602 44.4478 21.9105 41.6419C22.158 38.8009 22.5521 35.9134 23.0927 32.9792C23.6638 30.0074 24.3577 27.1143 25.1745 24.2999C25.9886 21.4505 26.8755 18.8952 27.8351 16.6341C28.4016 16.6256 29.0744 16.6971 29.8535 16.8485C30.6325 16.9999 31.4004 17.2228 32.1572 17.517C32.9112 17.7762 33.603 18.0931 34.2325 18.4678C34.8924 18.8048 35.3852 19.1371 35.7108 19.4646Z" fill="black"/>
</svg>
